<svg width="24" height="24" viewBox="0 0 24 24" fill="none" xmlns="http://www.w3.org/2000/svg">
<rect width="24" height="24" fill="#1E1E1E"/>
<g id="Icons">
<g id="Wrapper">
<g clip-path="url(#clip0_1_1777)">
<rect x="-184" y="-243" width="920" height="307" rx="16" fill="white"/>
<g id="Container">
<g id="ICONS">
<g id="Icon/Search">
<g id="Union">
<mask id="path-3-inside-1_1_1777" fill="white">
<path fill-rule="evenodd" clip-rule="evenodd" d="M13.198 16.0264C12.1067 16.6461 10.8447 17 9.5 17C5.35786 17 2 13.6421 2 9.5C2 5.35786 5.35786 2 9.5 2C13.6421 2 17 5.35786 17 9.5C17 10.8447 16.6461 12.1067 16.0264 13.198L20.5567 17.7282C21.3377 18.5093 21.3377 19.7756 20.5567 20.5566C19.7756 21.3377 18.5093 21.3377 17.7282 20.5566L13.198 16.0264ZM13 9.5C13 11.433 11.433 13 9.5 13C7.567 13 6 11.433 6 9.5C6 7.567 7.567 6 9.5 6C11.433 6 13 7.567 13 9.5Z"/>
</mask>
<path d="M13.198 16.0264L13.9051 15.3193L13.3665 14.7808L12.7042 15.1568L13.198 16.0264ZM16.0264 13.198L15.1569 12.7042L14.7808 13.3665L15.3193 13.9051L16.0264 13.198ZM20.5567 17.7282L21.2638 17.0211L21.2638 17.0211L20.5567 17.7282ZM20.5567 20.5566L19.8495 19.8495L19.8495 19.8495L20.5567 20.5566ZM17.7282 20.5566L18.4353 19.8495L18.4353 19.8495L17.7282 20.5566ZM9.5 18C11.0223 18 12.4539 17.5989 13.6918 16.896L12.7042 15.1568C11.7595 15.6933 10.6671 16 9.5 16V18ZM1 9.5C1 14.1944 4.80558 18 9.5 18V16C5.91015 16 3 13.0899 3 9.5H1ZM9.5 1C4.80558 1 1 4.80558 1 9.5H3C3 5.91015 5.91015 3 9.5 3V1ZM18 9.5C18 4.80558 14.1944 1 9.5 1V3C13.0899 3 16 5.91015 16 9.5H18ZM16.896 13.6918C17.5989 12.4539 18 11.0223 18 9.5H16C16 10.6671 15.6933 11.7595 15.1569 12.7042L16.896 13.6918ZM15.3193 13.9051L19.8495 18.4353L21.2638 17.0211L16.7335 12.4909L15.3193 13.9051ZM19.8495 18.4353C20.2401 18.8259 20.2401 19.459 19.8495 19.8495L21.2638 21.2638C22.4353 20.0922 22.4353 18.1927 21.2638 17.0211L19.8495 18.4353ZM19.8495 19.8495C19.459 20.2401 18.8259 20.2401 18.4353 19.8495L17.0211 21.2638C18.1927 22.4353 20.0922 22.4353 21.2638 21.2638L19.8495 19.8495ZM18.4353 19.8495L13.9051 15.3193L12.4909 16.7335L17.0211 21.2638L18.4353 19.8495ZM9.5 14C11.9853 14 14 11.9853 14 9.5H12C12 10.8807 10.8807 12 9.5 12V14ZM5 9.5C5 11.9853 7.01472 14 9.5 14V12C8.11929 12 7 10.8807 7 9.5H5ZM9.5 5C7.01472 5 5 7.01472 5 9.5H7C7 8.11929 8.11929 7 9.5 7V5ZM14 9.5C14 7.01472 11.9853 5 9.5 5V7C10.8807 7 12 8.11929 12 9.5H14Z" fill="#031933" mask="url(#path-3-inside-1_1_1777)"/>
</g>
</g>
</g>
</g>
</g>
</g>
</g>
<defs>
<clipPath id="clip0_1_1777">
<rect x="-184" y="-243" width="920" height="307" rx="16" fill="white"/>
</clipPath>
</defs>
</svg>
